<?xml version="1.0" standalone="no"?>
<!DOCTYPE svg PUBLIC "-//W3C//DTD SVG 20010904//EN"
 "http://www.w3.org/TR/2001/REC-SVG-20010904/DTD/svg10.dtd">
<svg version="1.0" xmlns="http://www.w3.org/2000/svg"
 width="64.000000pt" height="64.000000pt" viewBox="0 0 64.000000 64.000000"
 preserveAspectRatio="xMidYMid meet">

<g transform="translate(0.000000,64.000000) scale(0.100000,-0.100000)"
fill="#000000" stroke="none">
<path d="M315 574 c-89 -31 -165 -134 -165 -222 0 -48 25 -62 93 -55 46 6 47
5 107 -55 69 -70 78 -105 36 -147 -19 -19 -21 -25 -9 -29 51 -20 151 13 208
68 52 49 56 66 17 66 -72 0 -172 79 -208 165 -20 48 -20 142 0 188 l15 37 -27
-1 c-15 0 -45 -7 -67 -15z"/>
<path d="M150 520 c0 -5 5 -10 10 -10 6 0 10 5 10 10 0 6 -4 10 -10 10 -5 0
-10 -4 -10 -10z"/>
<path d="M535 460 c-3 -5 -1 -10 4 -10 6 0 11 5 11 10 0 6 -2 10 -4 10 -3 0
-8 -4 -11 -10z"/>
<path d="M447 416 c-3 -8 0 -17 8 -19 15 -7 25 1 25 20 0 17 -26 17 -33 -1z"/>
<path d="M49 398 c-7 -32 -5 -38 13 -38 13 0 18 6 16 17 -2 14 -26 32 -29 21z"/>
<path d="M528 343 c-5 -24 21 -44 37 -29 17 15 6 46 -15 46 -10 0 -20 -8 -22
-17z"/>
<path d="M84 258 c-19 -18 -46 -43 -59 -55 -46 -41 -20 -113 43 -117 17 -2 38
-9 47 -16 9 -8 30 -11 55 -7 22 3 43 1 46 -4 10 -16 61 -10 87 11 14 11 32 20
41 20 8 0 23 11 32 25 20 30 12 71 -16 80 -11 3 -25 18 -32 33 -20 41 -60 59
-99 45 -26 -10 -35 -10 -53 2 -31 22 -53 18 -92 -17z"/>
</g>
</svg>
