<?xml version="1.0" standalone="no"?>
<!DOCTYPE svg PUBLIC "-//W3C//DTD SVG 20010904//EN"
 "http://www.w3.org/TR/2001/REC-SVG-20010904/DTD/svg10.dtd">
<svg version="1.0" xmlns="http://www.w3.org/2000/svg"
 width="64.000000pt" height="64.000000pt" viewBox="0 0 64.000000 64.000000"
 preserveAspectRatio="xMidYMid meet">

<g transform="translate(0.000000,64.000000) scale(0.100000,-0.100000)"
fill="#000000" stroke="none">
<path d="M292 591 c-12 -21 -22 -41 -22 -45 0 -3 23 -6 50 -6 28 0 50 3 50 6
0 11 -43 84 -50 84 -3 0 -16 -17 -28 -39z"/>
<path d="M100 535 c0 -3 5 -26 11 -51 l12 -45 39 38 c33 32 36 38 21 44 -33
12 -83 21 -83 14z"/>
<path d="M480 528 c-19 -5 -36 -11 -38 -13 -2 -2 14 -19 35 -38 41 -39 43 -38
57 31 8 36 5 37 -54 20z"/>
<path d="M262 499 c-78 -24 -142 -128 -127 -208 24 -131 175 -200 282 -129
117 77 119 238 4 314 -42 27 -111 38 -159 23z"/>
<path d="M48 348 c-21 -12 -38 -25 -38 -28 0 -7 73 -50 84 -50 3 0 6 23 6 50
0 28 -3 50 -7 50 -5 0 -25 -10 -45 -22z"/>
<path d="M540 320 c0 -27 3 -50 6 -50 11 0 84 43 84 50 0 7 -73 50 -84 50 -3
0 -6 -22 -6 -50z"/>
<path d="M111 154 c-7 -25 -10 -49 -7 -51 2 -3 25 1 51 9 l46 13 -39 38 -39
38 -12 -47z"/>
<path d="M477 162 l-38 -39 47 -12 c25 -7 49 -10 51 -7 3 2 -1 25 -9 51 l-13
46 -38 -39z"/>
<path d="M270 94 c0 -11 43 -84 50 -84 7 0 50 73 50 84 0 3 -22 6 -50 6 -27 0
-50 -3 -50 -6z"/>
</g>
</svg>
