<svg version="1.0" xmlns="http://www.w3.org/2000/svg"
 width="64.000000pt" height="64.000000pt" viewBox="0 0 64.000000 64.000000"
 preserveAspectRatio="xMidYMid meet">

<g transform="translate(0.000000,64.000000) scale(0.100000,-0.100000)"
fill="#000000" stroke="none">
<path d="M182 517 c-67 -67 -122 -129 -122 -138 0 -19 20 -39 38 -39 8 0 50
34 93 76 53 53 80 73 84 63 3 -8 6 -115 7 -238 3 -201 5 -225 21 -235 12 -8
22 -8 35 0 15 10 17 34 20 235 1 123 4 230 7 238 4 10 31 -10 84 -63 43 -42
85 -76 93 -76 19 0 38 20 38 40 0 20 -240 260 -260 260 -9 0 -70 -55 -138
-123z"/>
</g>
</svg>
